<svg xmlns="http://www.w3.org/2000/svg" width="492" height="287" fill="none"><path fill="#DE7C64" stroke="#000" stroke-width=".3" d="M177.675 87.59c-2.576.087-5.477 1.334-8.977 4.62l-4.133 3.868c-1.768 2.188-5.487 6.142-8.977 9.904-1.748 1.883-3.439 3.719-4.803 5.265-1.367 1.549-2.395 2.795-2.825 3.503l-.009.014-.011.011c-7.686 8.09-12.726 13.879-19.783 22.442-1.927 2.616-4.133 5.915-6.483 8.099-1.413 1.618-3.951 4.259-6.383 6.829-2.441 2.58-4.771 5.084-5.765 6.431l-.01.013-.012.011c-2.308 1.995-3.537 3.49-5.028 5.499l-1.629 2.219-.006.007c-2.262 2.671-5.339 7.152-7.935 11.82-2.6 4.672-4.703 9.507-5.04 12.892l-.007.079-.07.038c-1.696.922-2.728 1.819-3.525 2.926-.801 1.113-1.37 2.444-2.133 4.254l-.004.009-.004.007c-.677 1.18-2.263 3.852-3.669 6.496-.703 1.322-1.358 2.633-1.832 3.746-.237.556-.427 1.06-.555 1.489-.129.433-.191.776-.18 1.016l.003.052-.031.042a1379.63 1379.63 0 0 1-19.298 26.025c1.6-.723 4.208-1.765 6.643-2.801 1.372-.584 2.692-1.167 3.753-1.692.53-.263.994-.512 1.367-.738.376-.227.65-.426.808-.59l.014-.016.019-.011.413-.246c.41-.249.804-.504 1.193-.752a27.14 27.14 0 0 1 1.528-.93c1.014-.557 2.046-.954 3.21-.937l.173.002-.029.173-.237 1.411c.314-.077.666-.244 1.052-.494.469-.305.979-.724 1.518-1.231 1.08-1.014 2.266-2.364 3.478-3.798 1.21-1.432 2.446-2.95 3.613-4.291 1.168-1.341 2.278-2.518 3.24-3.266l.003-.001 1.003-.736c5.029-3.628 10.259-6.431 15.667-9.495l.316-.179-.098.35c-1.254 4.48-3.056 10.249-3.734 14.782l2.553-1.741c.817-3.671 2.758-9.689 3.805-13.534l.012-.043.031-.029 1.566-1.423a244.162 244.162 0 0 1 4.774-4.194l.145-.125.086.172.229.455c1.599-.93 3.194-1.873 4.78-2.828l.187-.112.037.214c.926 5.221 1.576 8.758 1.874 14.085 1.739 1.098 3.777 2.393 5.597 3.884 1.841 1.508 3.471 3.227 4.339 5.163l.026.059-.024.059c-.407.989-.744 1.556-1.19 2.044-.43.471-.962.869-1.733 1.507l-.058.38c1.158-.602 1.937-.978 3.011-1.85l.039-.033.05-.001c1.325-.049 2.657-.179 3.969-.262 1.307-.084 2.587-.121 3.781.018 1.195.14 2.31.456 3.288 1.086.972.626 1.799 1.555 2.431 2.908 1.532 1.361 3.251 3.063 5.003 3.939l.004.002c1.225.654 1.953 1.061 2.707 1.389.743.324 1.512.57 2.807.895a35.244 35.244 0 0 0 8.065-3.263h.001c1.959-1.076 3.358-2.104 3.959-4.164l-1.184-1.689c-1.245.345-2.136.021-3.373-.234l-.063-.013-.034-.054-.619-.983-.03-.047.009-.056c.337-2.173 1.773-3.76 3.59-4.83 1.81-1.065 4.011-1.627 5.929-1.75 3.331-.834 7.535-1.973 11.686-2.441 4.152-.467 8.282-.268 11.449 1.606 1.722 1.018 2.592 1.739 3.364 2.467.757.714 1.406 1.42 2.679 2.426l2.279-.828.015-.006.017-.002c1.343-.165 2.874-.84 4.54-1.929 1.665-1.088 3.455-2.582 5.317-4.37 3.725-3.578 7.728-8.325 11.577-13.337 7.694-10.02 14.764-21.083 17.761-25.94 7.419-17.953 10.481-28.029 11.627-47.232l.105-1.889c.24-6.304 2.15-12.501 4.744-18.198l.015-.032.028-.023c.843-.678 1.332-1.017 1.635-1.145.152-.065.289-.09.41-.045a.443.443 0 0 1 .228.221c.091.164.137.3.323.378.172.073.489.099 1.102-.063a10.94 10.94 0 0 1-.773-.871c-.233-.303-.442-.626-.794-1.173l-.042-.065.029-.072c.428-1.051.609-1.469 1.044-1.774.211-.147.478-.267.843-.429.349-.156.8-.358 1.408-.667-.216-.784-.463-1.172-.844-1.53-.206-.192-.452-.377-.762-.612a22.865 22.865 0 0 1-1.111-.885l-.058-.049.005-.074c.041-.668.062-.945.004-1.203-.057-.247-.189-.477-.491-1.013l-1.595-.175.018.235.012.163-.164-.002c-2.05-.02-3.763-.26-5.475-.418-1.706-.158-3.422-.238-5.508.05-.019.011-.045.03-.08.052l-.36.235-1.331.86a434.988 434.988 0 0 1-4.054 2.582c-1.463.918-2.907 1.806-3.932 2.395-.511.294-.924.515-1.185.63a1.727 1.727 0 0 1-.176.067.418.418 0 0 1-.152.025.183.183 0 0 1-.116-.048l-.001-.002c-.571.199-1.037.336-1.425.449-.434.126-.763.221-1.043.341-.529.227-.889.548-1.391 1.394l.527 1.52.041.117-.109.062c-.931.526-2.318.738-3.927.761-1.614.022-3.474-.148-5.365-.404-3.773-.51-7.722-1.374-10.089-1.752l-.331-.052.26-.212 2.311-1.887c-1.097-.075-2.381-.378-3.766-.822-1.558-.501-3.254-1.182-4.969-1.92-3.421-1.475-6.903-3.176-9.559-4.173-3.242.57-5.975-.212-8.459-1.491-1.247-.642-2.433-1.41-3.588-2.194-1.159-.786-2.284-1.587-3.42-2.304-2.271-1.433-4.555-2.51-7.133-2.423Zm72.849 8.176-.007.005.007-.004h.001-.001Zm-.142-.085a.181.181 0 0 0 .065.063l-.031-.086-.034.023Z"/><path fill="#070B12" stroke="#000" stroke-width=".3" d="M129.423 142.928c-3.097.324-5.774 1.414-7.696 3.737l-.253.305-.012-.396-.032-.984c-1.448 1.632-3.841 4.126-6.14 6.555-2.441 2.58-4.77 5.083-5.765 6.43l-.01.014-.012.011c-3.076 2.659-4.235 4.431-6.656 7.717l-.007.008c-2.262 2.671-5.339 7.152-7.935 11.819-2.599 4.673-4.701 9.509-5.038 12.894l-.008.078-.07.038c-1.697.922-2.728 1.818-3.526 2.926-.8 1.113-1.37 2.444-2.133 4.254l-.004.009-.004.007c-.676 1.18-2.262 3.852-3.667 6.495-.703 1.322-1.36 2.634-1.834 3.746a14.564 14.564 0 0 0-.555 1.49c-.128.432-.19.775-.178 1.015l.002.053-.03.042a1382.046 1382.046 0 0 1-19.3 26.025c1.6-.723 4.209-1.765 6.644-2.801 1.372-.584 2.691-1.167 3.753-1.693.53-.263.994-.51 1.367-.736.376-.227.65-.427.808-.592l.015-.016.017-.009.414-.248c.409-.249.804-.503 1.192-.752.517-.33 1.022-.651 1.529-.929 1.014-.557 2.045-.955 3.209-.937l.174.003-.029.171-.237 1.412c.314-.077.666-.243 1.051-.493.47-.305.979-.726 1.519-1.233 1.079-1.014 2.266-2.362 3.478-3.797 1.209-1.431 2.445-2.951 3.613-4.292 1.167-1.341 2.277-2.517 3.24-3.264l.003-.002 1.003-.737c5.028-3.628 10.259-6.43 15.666-9.494l.317-.179-.098.35c-1.253 4.481-3.055 10.248-3.734 14.781l2.552-1.74c.818-3.671 2.759-9.689 3.806-13.535l.011-.041.032-.029 1.565-1.425a244.063 244.063 0 0 1 4.774-4.192l.146-.125.086.171.229.455a362.05 362.05 0 0 0 4.757-2.816c.477-.619 1.269-1.188 2.224-1.711.971-.532 2.125-1.026 3.319-1.483 1.194-.457 2.432-.88 3.573-1.269 1.139-.388 2.178-.742 2.986-1.066 1.849-1.055 5.794-4.104 7.659-5.48h-.001c.312-.246 1.006-.659 1.889-1.153a152.13 152.13 0 0 1 3.088-1.669c2.227-1.176 4.543-2.365 5.529-2.907 7.111-3.914 14.672-9.005 20.609-14.654l.569-.549.011-.009.24-.175a23.05 23.05 0 0 1 1.293-.787c.728-.419 1.624-.914 2.536-1.41.911-.495 1.838-.991 2.626-1.412l1.613-.863c-.765-.749-1.893-2.126-3.051-3.574-1.238-1.547-2.516-3.18-3.455-4.243-.578-.437-1.37-.606-2.254-.673a21.649 21.649 0 0 0-1.361-.046c-.457-.005-.916-.008-1.351-.033-.933-.052-1.628-.186-2.188-.417a3.635 3.635 0 0 1-1.359-.983c-.376-.42-.719-.94-1.129-1.552a29.634 29.634 0 0 0-1.544-2.133c-.902-.345-1.451-.533-1.815-.623-.364-.09-.527-.078-.667-.036-.078.024-.15.057-.257.101-.103.042-.227.09-.39.135a5.13 5.13 0 0 1-1.064.15l-.541.014c-2.345.007-5.359-.661-8.665-1.511-3.314-.853-6.927-1.891-10.498-2.635-3.571-.744-7.082-1.191-10.183-.868Z"/><path fill="#E1E5EE" stroke="#000" stroke-width=".3" d="M129.423 142.928c-3.015.315-5.632 1.357-7.542 3.556 5.323 1.341 8.092 2.803 10.624 4.494 2.566 1.714 4.863 3.641 9.345 5.913l.142.073-.081.137c-.522.886-1.446 1.911-2.57 3.002-1.127 1.093-2.465 2.262-3.826 3.434-2.731 2.351-5.543 4.71-6.974 6.537-.228.29-1.37 1.657-2.481 2.977a390.003 390.003 0 0 1-2.061 2.424c-.036.042-.072.078-.102.113l.547.18.025.008.02.016c2.312 1.787 2.505 4.361 2.967 6.866.232 1.26.531 2.511 1.183 3.676.64 1.141 1.624 2.206 3.234 3.109.948-.699 1.708-1.268 2.382-1.705.694-.449 1.307-.764 1.953-.938 1.283-.344 2.668-.126 5.049.596.338-.25.997-.644 1.824-1.106a152.13 152.13 0 0 1 3.088-1.669c2.227-1.176 4.543-2.365 5.529-2.907 7.111-3.914 14.672-9.005 20.609-14.654l.569-.549.011-.009.24-.175a23.05 23.05 0 0 1 1.293-.787c.728-.419 1.624-.914 2.536-1.41.911-.495 1.838-.991 2.626-1.412l1.613-.863c-.765-.749-1.893-2.126-3.051-3.574-1.238-1.547-2.516-3.18-3.455-4.243-.578-.437-1.37-.606-2.254-.673a21.649 21.649 0 0 0-1.361-.046c-.457-.005-.916-.008-1.351-.033-.933-.052-1.628-.186-2.188-.417a3.635 3.635 0 0 1-1.359-.983c-.376-.42-.719-.94-1.129-1.552a29.634 29.634 0 0 0-1.544-2.133c-.902-.345-1.451-.533-1.815-.623-.364-.09-.527-.078-.667-.036-.078.024-.15.057-.257.101-.103.042-.227.09-.39.135a5.13 5.13 0 0 1-1.064.15l-.541.014c-2.345.007-5.359-.661-8.665-1.511-3.314-.853-6.927-1.891-10.498-2.635-3.571-.744-7.082-1.191-10.183-.868Z"/><path fill="#081B2E" stroke="#000" stroke-width=".3" d="M141.866 157.172c-.529.87-1.431 1.87-2.525 2.931-1.126 1.093-2.465 2.261-3.826 3.433-2.731 2.351-5.543 4.71-6.974 6.537h-.001a394.958 394.958 0 0 1-4.011 4.786c-.212.248-.394.459-.53.615-.036.042-.072.079-.102.113l.547.18.024.008.021.016c2.312 1.787 2.505 4.363 2.966 6.867.233 1.261.531 2.512 1.184 3.676.639 1.142 1.624 2.205 3.233 3.109.949-.7 1.709-1.269 2.383-1.706.695-.449 1.307-.764 1.953-.937 1.283-.345 2.668-.126 5.05.596.337-.25.997-.645 1.823-1.107a147.88 147.88 0 0 1 3.088-1.667c2.228-1.177 4.543-2.367 5.53-2.909 6.969-3.837 14.371-8.804 20.253-14.32-3.053 1.751-5.589 2.875-7.798 3.012-1.24.077-2.379-.156-3.447-.76-.933-.528-1.805-1.336-2.642-2.455l-.356-.498a.903.903 0 0 0-.299-.248 3.036 3.036 0 0 0-.553-.23c-.445-.144-1.023-.265-1.692-.379-1.324-.227-3.02-.429-4.652-.739-1.638-.311-3.254-.738-4.459-1.427-1.209-.692-2.025-1.665-2.004-3.065v-.067l.051-.044 1.458-1.286.002-.002 2.577-2.189-6.272.156Z"/><path fill="#A2A4AC" stroke="#000" stroke-width=".3" d="M146.263 159.002c2.947-.736 4.498-.366 7.519-.367l-.639-.466.072-.152c-1.508-.567-2.748-.687-4.611-1.003l-2.341 1.988Z"/><path fill="#242426" stroke="#000" stroke-width=".3" d="M123.552 181.639c-1.036 1.021-2.773 2.361-4.804 3.827-2.047 1.478-4.403 3.091-6.656 4.645-2.254 1.555-4.406 3.052-6.052 4.298-.823.623-1.517 1.181-2.033 1.652-.258.236-.47.448-.63.633-.135.157-.228.29-.284.398l.511 1.002.049.096-.076.077c-.694.699-1.221 1.055-1.818 1.289-.582.228-1.233.341-2.148.559-1.261.735-3.058 1.714-4.721 2.819-1.678 1.115-3.19 2.341-3.876 3.551l-.034.059-.066.014c-1.697.349-2.595.563-4.22 1.067l-.3.83-.034.099h-.106l-.053-.001.052.118.098.22-.24-.009-.82-.03-.13-.006-.013-.128-.032-.298-.018-.165.167-.001.475-.001-.514-1.156c-1.03-.001-1.442.054-1.854.241-.217.098-.437.235-.75.43-.311.193-.708.439-1.267.749l-.5.277.3-.486 1.672-2.718-.462-.412c-1.532.895-1.932 2.084-2.3 3.22-.186.577-.368 1.154-.696 1.651-.326.494-.793.902-1.536 1.177a1387.979 1387.979 0 0 1-19.272 25.991c1.6-.723 4.207-1.766 6.643-2.803 1.372-.583 2.69-1.166 3.752-1.692.53-.263.995-.511 1.368-.736.376-.228.65-.427.808-.592l.014-.015.019-.011.413-.247c.41-.249.804-.503 1.192-.752a27.139 27.139 0 0 1 1.53-.93c1.013-.557 2.044-.954 3.207-.936l.175.002-.029.172-.237 1.412c.314-.077.666-.243 1.052-.494.469-.304.977-.725 1.517-1.232 1.08-1.014 2.267-2.363 3.479-3.797 1.21-1.432 2.445-2.951 3.613-4.292 1.167-1.341 2.278-2.517 3.24-3.264l.003-.002 1.003-.737c5.028-3.628 10.259-6.43 15.667-9.494l.316-.18-.098.351c-1.254 4.481-3.056 10.248-3.734 14.781l2.552-1.74c.818-3.672 2.759-9.689 3.806-13.535l.012-.041.032-.03 1.565-1.423a247.535 247.535 0 0 1 4.774-4.194l.145-.125.086.172.229.455a373.96 373.96 0 0 0 4.76-2.818c.477-.618 1.267-1.187 2.22-1.709.971-.533 2.125-1.026 3.319-1.483 1.194-.458 2.433-.88 3.574-1.269 1.138-.388 2.177-.742 2.984-1.066 1.774-1.011 5.478-3.857 7.423-5.303-2.245-.669-3.512-.841-4.669-.53-.604.162-1.186.458-1.868.9-.683.442-1.456 1.023-2.446 1.753l-.01.007-.009.004-3.084 1.654-.14.075-.067-.144c-.37-.793-.634-1.718-.868-2.68-.237-.97-.44-1.964-.693-2.933-.497-1.905-1.163-3.603-2.527-4.505l-1.022.418Zm-38.12 26.916.45.017-.01-.018h-.44v.001Z"/><path fill="#645656" stroke="#000" stroke-width=".3" d="M107.095 202.135a4.953 4.953 0 0 0-.239.086c-.318.126-.726.321-1.211.579-.971.516-2.243 1.275-3.72 2.208-2.954 1.866-6.722 4.421-10.532 7.091-6.212 4.353-12.523 9.003-15.6 11.467a64.285 64.285 0 0 1 2.106-1.261c.736-.418 1.475-.806 2.145-1.092.666-.284 1.28-.474 1.76-.484l.116-.003.03.113c.227.818-.207 1.698-.946 2.54-.747.851-1.84 1.705-3.024 2.489-2.34 1.548-5.07 2.841-6.288 3.298l-1 1.381.586.753c.517-.305 1.01-.622 1.493-.931a27.176 27.176 0 0 1 1.529-.93c1.014-.557 2.044-.953 3.208-.936l.175.002-.03.173-.236 1.41c.313-.077.665-.243 1.05-.493.47-.304.979-.724 1.519-1.231 1.079-1.014 2.266-2.364 3.478-3.798 1.21-1.432 2.446-2.951 3.613-4.292.93-1.069 1.825-2.03 2.637-2.756-1.897.631-3.308 1.151-5.262 2.022l-.082.036-.07-.053-.43-.326-.138-.105.123-.121c3.105-3.08 7.905-6.151 12.464-9.057 2.283-1.455 4.506-2.869 6.433-4.227 1.76-1.24 3.266-2.429 4.343-3.552Z"/><path fill="#5D574A" stroke="#000" stroke-width=".3" d="M136.286 187.09c-.604.162-1.186.459-1.868.9-.683.442-1.456 1.023-2.447 1.753l-.009.007-.009.004-3.08 1.652c-1.807 1.181-4.262 2.771-6.596 4.468-2.302 1.674-4.473 3.446-5.787 5.027l.185.367a373.96 373.96 0 0 0 4.76-2.818c.477-.618 1.267-1.186 2.22-1.709.971-.532 2.125-1.026 3.319-1.483 1.194-.457 2.433-.88 3.574-1.269 1.138-.388 2.177-.742 2.984-1.065 1.774-1.012 5.478-3.858 7.423-5.304-2.245-.668-3.512-.841-4.669-.53Z"/><path fill="#645656" stroke="#000" stroke-width=".3" d="M99.146 200.383c-1.215.698-2.788 1.575-4.257 2.551-1.453.966-2.782 2.016-3.557 3.066 1.207-.647 2.816-1.532 4.3-2.519.853-.569 1.664-1.17 2.33-1.777.488-.445.894-.888 1.184-1.321Z"/><path fill="#E1E5EE" stroke="#000" stroke-width=".3" d="M119.915 152.725c-4.082 1.06-6.931 3.418-10.416 5.878-3.006 2.599-4.18 4.351-6.494 7.5.342.004.786-.088 1.322-.278.672-.238 1.466-.617 2.338-1.104 1.743-.973 3.787-2.366 5.784-3.88 1.996-1.513 3.943-3.146 5.49-4.598a31.84 31.84 0 0 0 1.975-2.003c.453-.511.796-.956 1.007-1.312l-1.006-.203Z"/><path fill="#645656" stroke="#000" stroke-width=".3" d="M113.052 178.637c-2.422 1.446-4.365 2.851-6.16 4.188-2.167 1.614-4.127 3.13-6.455 4.479h-.001l-.865.49c-1.8 1.327-4.855 3.5-7.763 5.693-2.692 2.031-5.239 4.065-6.536 5.447.139-.039.294-.091.463-.158.365-.143.792-.346 1.272-.603.96-.513 2.128-1.237 3.437-2.11 2.617-1.748 5.788-4.09 8.977-6.539 5.338-4.098 10.719-8.492 13.631-10.887Z"/><path fill="#081B2E" stroke="#000" stroke-width=".3" d="M98.506 185.222c-1.833 1.032-3.214 2.199-4.533 3.268-1.327 1.075-2.596 2.053-4.186 2.665-1.695.922-2.727 1.819-3.524 2.925-.787 1.094-1.35 2.4-2.094 4.163l.687.702c1.25-1.409 3.947-3.568 6.771-5.697 2.319-1.749 4.734-3.492 6.529-4.795-1.263.578-2.237.976-3.89 1.436l-.417.116.256-.349c1.393-1.899 2.933-2.914 4.759-4.291l-.358-.143Z"/><path fill="#645656" stroke="#000" stroke-width=".3" d="M123.662 175.826c-4.622 3.754-9.92 7.334-15.06 10.846-5.055 3.454-9.956 6.844-13.93 10.278l.193.02c2.92-1.535 9.317-5.619 15.464-9.924 3.087-2.161 6.108-4.377 8.593-6.349 2.373-1.885 4.246-3.54 5.222-4.713l-.482-.158Zm-1.135 6.345c-2.489 1.353-7.67 4.451-12.611 7.644-2.881 1.862-5.676 3.754-7.804 5.347-1.064.797-1.958 1.518-2.612 2.121a8.923 8.923 0 0 0-.787.807 3.114 3.114 0 0 0-.237.32c.943-.166 1.525-.3 2.092-.492.615-.209 1.215-.484 2.248-.938.071-.147.185-.308.334-.481a8.17 8.17 0 0 1 .654-.658c.526-.48 1.228-1.046 2.054-1.671 1.652-1.251 3.811-2.751 6.064-4.306 2.255-1.555 4.607-3.165 6.651-4.641 1.562-1.127 2.938-2.173 3.954-3.052Z"/><path fill="#0C437E" stroke="#000" stroke-width=".3" d="M177.675 87.59c-2.576.086-5.477 1.334-8.977 4.62l-4.133 3.868c-1.768 2.187-5.488 6.142-8.978 9.904-1.748 1.883-3.439 3.72-4.803 5.265-1.367 1.549-2.395 2.795-2.825 3.503l-.008.014-.011.011c-7.684 8.088-12.725 13.875-19.779 22.435v.001c-1.915 2.599-4.107 5.875-6.441 8.06l.029.909c1.964-2.198 4.625-3.235 7.643-3.55 3.147-.328 6.694.126 10.274.872 3.58.746 7.21 1.788 10.513 2.638 3.31.852 6.287 1.509 8.588 1.502.781-.003 1.232-.074 1.527-.154.147-.04.259-.083.356-.123.094-.039.188-.081.285-.11.21-.063.431-.066.825.032.389.096.964.295 1.887.65l.038.014.025.032a29.502 29.502 0 0 1 1.586 2.184c.415.619.745 1.117 1.104 1.518.355.397.736.695 1.249.907.452.187 1.013.311 1.759.372l.332.023c.427.024.877.027 1.338.032.458.005.926.013 1.379.048.855.064 1.682.225 2.319.665 3.053-2.975 6.102-4.001 9.265-4.773 3.196-.779 6.489-1.295 10.066-3.279 5.786-3.21 11.463-8.823 16.363-13.404.825-4.193 3.055-7.239 5.315-10.783-.016-.812.143-2.303.336-3.804.098-.768.206-1.544.303-2.238.09-.649.171-1.228.229-1.664-3.403-2.465-7.585-4.637-11.317-6.7l-.247-.135.25-.129 3.57-1.836.029-.015.032-.001c2.433-.118 4.895-.295 7.331-.202l2.269-1.85c-1.097-.075-2.382-.378-3.768-.823-1.559-.501-3.254-1.181-4.969-1.92-3.42-1.475-6.902-3.177-9.558-4.173-3.242.57-5.974-.212-8.459-1.491-1.247-.642-2.433-1.41-3.588-2.194-1.159-.787-2.284-1.587-3.42-2.304-2.271-1.433-4.555-2.51-7.133-2.424Z"/><path fill="#D4988A" stroke="#000" stroke-width=".3" d="M147.872 114.847c-7.642 8.047-12.672 13.823-19.701 22.352-.208.517-.392.914-.545 1.245-.157.337-.28.598-.367.852-.155.452-.201.885-.098 1.661 5.256-3.39 12.554-8.409 19.898-13.203 7.115-4.645 14.265-9.068 19.592-11.549-2.969.117-6.123.313-9.222.243-3.329-.076-6.609-.463-9.557-1.601Z"/><path fill="#AC9894" stroke="#000" stroke-width=".3" d="M199.136 106.867c-2.486.609-4.901 1.518-9.362 3.397l-.037.059.421-.126.001-.001c1.968-.583 5.193-1.207 8.208-1.796 1.51-.294 2.968-.581 4.196-.849 1.226-.267 2.211-.515 2.786-.733l2.773-1.426c-4.239.593-6.645.902-8.986 1.475Z"/><path fill="#E99680" stroke="#000" stroke-width=".3" d="M205.728 106.96c3.686 2.031 7.815 4.191 11.174 6.637l.072.052-.012.089a200.07 200.07 0 0 1-.241 1.755c-.097.694-.204 1.468-.303 2.235-.193 1.508-.349 2.975-.334 3.759 3.188 4.196 3.982 7.604 4.287 11.046.306 3.455.12 6.897 1.358 11.236v.001c.006.021.035.067.125.13.086.06.208.124.362.188.306.127.714.248 1.152.356.875.217 1.847.38 2.309.449l.064.009.036.053c.761 1.091 1.049 1.532 1.108 2.126.029.289.002.612-.034 1.056a32.35 32.35 0 0 0-.11 1.843c.174 1.183.288 2.259.416 3.235.128.984.271 1.873.506 2.696.466 1.638 1.294 3.027 3.103 4.376 1.484.988 3.008 2.034 4.506 2.974l.049.032.016.057c.448 1.704.992 3.96 1.623 6.154.62 2.151 1.32 4.224 2.089 5.64.664-.064 1.072-.186 1.454-.38.36-.184.694-.426 1.199-.76l-.75-.323-.428-.185.455-.099c.942-.206 1.342-.268 1.787-.111.214.076.436.201.73.368.272.153.616.346 1.093.586 7.617-18.446 10.622-28.584 11.677-48.984.24-6.305 2.15-12.5 4.743-18.198l.015-.033.029-.022.568-.447c.508-.387.84-.602 1.067-.698.152-.064.289-.089.41-.045a.45.45 0 0 1 .227.22c.092.165.138.301.323.379.173.073.49.099 1.103-.063a10.756 10.756 0 0 1-.773-.872c-.234-.302-.442-.625-.795-1.171l-.042-.066.029-.072c.429-1.05.61-1.469 1.045-1.774.21-.147.478-.267.843-.43.349-.155.8-.357 1.408-.666-.217-.784-.463-1.172-.844-1.53a9.773 9.773 0 0 0-.762-.612 22.804 22.804 0 0 1-1.111-.885l-.058-.048.005-.075c.04-.668.062-.946.003-1.203-.056-.247-.188-.478-.491-1.013l-1.594-.175.017.234.013.163h-.164c-2.05-.02-3.764-.26-5.476-.419-1.705-.158-3.421-.237-5.507.05l-.08.051-.36.235-1.331.86a423.334 423.334 0 0 1-4.055 2.582c-1.462.919-2.906 1.807-3.932 2.396-.511.293-.924.516-1.185.63a1.66 1.66 0 0 1-.175.068.45.45 0 0 1-.153.025.194.194 0 0 1-.116-.049v-.002a27.25 27.25 0 0 1-1.426.449c-.433.126-.763.22-1.043.341-.529.227-.888.548-1.39 1.395l.527 1.518.041.119-.109.061c-.931.525-2.319.738-3.927.76-1.614.022-3.474-.147-5.365-.403-3.769-.51-7.713-1.372-10.081-1.751-2.424-.097-4.871.079-7.319.198l-3.29 1.692Zm44.653-11.28a.177.177 0 0 0 .066.064l-.031-.087-.035.023Z"/><path fill="#070B12" stroke="#000" stroke-width=".3" d="m250.417 95.837-.361.234c-.316.205-.776.504-1.33.86a426.756 426.756 0 0 1-4.055 2.582c-1.462.919-2.906 1.807-3.932 2.396-.511.293-.924.516-1.185.63a2.033 2.033 0 0 1-.175.068.427.427 0 0 1-.153.024.182.182 0 0 1-.116-.049c-.572.198-1.037.335-1.426.448-.433.126-.762.221-1.043.341-.528.228-.889.549-1.39 1.394l.506 1.455c4.127 1.669 8.569 4.195 12.355 7.404 3.6 3.052 6.614 6.729 8.192 10.882.356-6.045 2.215-11.976 4.705-17.448l.015-.033.029-.022c.843-.678 1.332-1.017 1.635-1.145.152-.064.289-.09.41-.045a.448.448 0 0 1 .227.221c.092.164.138.3.323.378.173.073.49.099 1.103-.063a10.996 10.996 0 0 1-.774-.872c-.233-.303-.441-.625-.794-1.171l-.042-.066.029-.072c.429-1.051.61-1.469 1.045-1.774.21-.147.478-.266.843-.429.349-.156.8-.358 1.407-.667-.216-.784-.462-1.172-.844-1.53-.205-.192-.451-.377-.761-.612a22.865 22.865 0 0 1-1.111-.885l-.058-.048.005-.075c.04-.668.062-.945.003-1.202-.056-.248-.188-.478-.491-1.014l-1.594-.175.017.235.013.163-.164-.001c-2.05-.02-3.764-.26-5.476-.419-1.705-.158-3.422-.237-5.508.05l-.079.052Zm-.036-.156a.186.186 0 0 0 .066.063l-.031-.086-.035.023Z"/><path fill="#D4988A" stroke="#000" stroke-width=".3" d="M226.785 150.295c.149 1.06.255 2.031.371 2.92.129.984.272 1.873.507 2.696.451 1.587 1.243 2.938 2.936 4.248.356-1.109.599-1.793.749-2.486.157-.722.212-1.454.176-2.683-.901-2.449-2.482-3.197-4.739-4.695Z"/><path fill="#885D41" stroke="#000" stroke-width=".3" d="M133.039 193.434c-.703.262-1.523.542-2.394.839-1.142.389-2.376.81-3.564 1.265-1.188.456-2.328.943-3.282 1.466-.929.51-1.667 1.047-2.108 1.606.92 5.184 1.565 8.713 1.861 14.017 1.739 1.098 3.778 2.392 5.597 3.883 1.841 1.508 3.471 3.227 4.339 5.164l.026.059-.024.059c-.407.989-.744 1.555-1.19 2.043-.43.471-.962.87-1.733 1.508l-.057.38c1.158-.602 1.936-.978 3.01-1.85l.04-.033.049-.001c1.326-.049 2.658-.179 3.97-.262 1.307-.084 2.586-.122 3.78.017 1.195.14 2.31.457 3.288 1.087.917.59 1.705 1.45 2.321 2.681 1.673-2.889 2.416-4.15 4.617-6.83-.48-3.07-1.556-5.5-2.664-8.436l-.041-.112.099-.066a437.091 437.091 0 0 0 8.427-5.773c-2.062.34-4.743.839-7.361 1.1-1.453.145-2.893.217-4.203.146-1.309-.07-2.499-.283-3.447-.713l-.04-.019-.025-.037c-1.175-1.845-1.959-3.008-2.918-3.974-.94-.947-2.054-1.712-3.884-2.741-.537.632-.844 1.033-1.21 1.348-.391.337-.85.577-1.722.92l-.079.031-.068-.053c-.946-.731-1.521-1.513-1.803-2.322-.281-.808-.264-1.631-.05-2.437.375-1.409 1.36-2.775 2.443-3.96Z"/><path fill="#102F56" stroke="#000" stroke-width=".3" d="M210.539 132.623c-4.856 4.544-10.513 10.117-16.287 13.32-3.621 2.009-6.968 2.535-10.139 3.308-3.137.765-6.123 1.773-9.116 4.685.936 1.071 2.184 2.661 3.381 4.157 1.206 1.507 2.358 2.913 3.103 3.622 10.715-4.127 22.544-12.708 27.712-23.235.178-.363.346-.694.501-.999.156-.304.299-.583.427-.843.256-.521.452-.963.575-1.388.229-.787.213-1.531-.157-2.627Z"/><path fill="#89706A" stroke="#000" stroke-width=".3" d="M151.782 220.764c-2.192 2.675-2.917 3.919-4.635 6.886 1.412 1.26 2.979 2.789 4.583 3.691-.704-1.906-.668-3.217-.255-4.576.217-.716.538-1.444.902-2.273.352-.801.745-1.703 1.133-2.795l-1.728-.933Z"/><path fill="#69484B" stroke="#000" stroke-width=".3" d="M415.85 152.737c-.884.829-1.679 2.102-2.4 3.476-.739 1.411-1.386 2.898-1.978 4.108l-.03.06-.065.018c-4.303 1.21-8.786 2.209-13.298 3.187-4.513.978-9.055 1.935-13.485 3.058l-.006.002c-4.531.947-8.895 1.636-13.29 2.366-4.396.73-8.825 1.503-13.495 2.621l-.021.005-.021-.001-.857-.042-.001.001c-1.125-.059-3.321-.488-5.333-.839a46.632 46.632 0 0 0-2.751-.419 9.047 9.047 0 0 0-.988-.066c-.273.001-.448.027-.534.069-4.605 2.219-9.281 5.086-13.973 7.901-4.688 2.812-9.392 5.574-14.041 7.57l-.054.023-.054-.018c-.709-.242-1.308-.481-1.843-.693a17.623 17.623 0 0 0-1.464-.531c-.897-.264-1.753-.342-2.96-.061-.508.557-1.904 2.1-3.279 3.552a66.634 66.634 0 0 1-1.975 2.012c-.286.276-.543.511-.754.688-.105.088-.2.162-.283.22a1.002 1.002 0 0 1-.227.127c-13.724 4.985-34.618 13.483-48.111 17.279l-.08.023-.061-.057c-.994-.903-1.508-1.385-2.076-1.775-.56-.384-1.175-.679-2.364-1.189-3.116-.192-4.997 1.32-7.881 2.957-.466.591-1.359 1.248-2.558 1.945-1.22.71-2.773 1.473-4.556 2.263-3.564 1.58-8.055 3.273-12.644 4.873-9.178 3.201-18.765 6.037-22.162 6.865l-.169.041-.016-.173c-.081-.887.056-1.469.34-2.063.14-.293.314-.588.511-.92.146-.245.302-.514.471-.821l-1.983.721-.079.029-.065-.052c-1.331-1.044-2.007-1.78-2.765-2.495-.756-.713-1.608-1.421-3.31-2.427-3.081-1.823-7.13-2.032-11.263-1.566-4.13.466-8.315 1.6-11.657 2.436l-.013.003-.013.001c-1.884.119-4.046.67-5.813 1.711-1.752 1.031-3.102 2.534-3.436 4.563l.554.881c1.277.267 2.079.558 3.268.199l.103-.032.062.089 1.287 1.836.041.058-.02.069c-.624 2.226-2.127 3.313-4.123 4.41l.001.001a35.594 35.594 0 0 1-6.928 2.945c3.286-.283 5.771-1.534 8.892-2.992l.029-.014.032-.001c3.24-.068 5.977-.263 9.193-.526l.07-.006.049.051.431.445.096.098-.09.104-.478.555-.027.031-.039.013c-14.193 4.807-27.245 9.808-42.281 11.367-.9.093-2.125.307-3.504.559-1.376.252-2.904.541-4.399.78-1.494.239-2.962.431-4.221.487-1.199.053-2.233-.017-2.922-.3l-.711.613-.039.034-.052.002c-.857.037-1.288.047-1.692-.075a3.094 3.094 0 0 1-.627-.283c-.218-.123-.481-.285-.828-.49-.922.25-1.515.679-2.075 1.172-.569.501-1.123 1.086-1.945 1.58l-.037.024-.045-.002c-3.291-.113-4.635-.272-6.003-.202-1.36.069-2.734.367-6.063 1.177l-.038.009-.036-.01c-1.912-.508-3.132-.591-3.989-.419-.847.17-1.356.592-1.842 1.147-.482.55-.964 1.262-1.714 1.927-.76.674-1.803 1.313-3.444 1.767l-.013.003-.015.002c-4.395.338-8.398 1.288-12.326 2.247-3.923.958-7.774 1.926-11.847 2.287-8.618 1.793-17.727 3.523-26.132 5.95.828 4.137 1.18 5.673 2.69 9.527.436-.477.96-1.052 1.572-1.727l.026-.029.038-.013 2.06-.67c4.853-1.551 10.021-3.029 15.171-4.495 5.887-1.677 11.75-3.339 17.1-5.086l.087-.028.065.063c1.47 1.44 2.344 2.117 3.363 2.448 1.027.333 2.211.319 4.329.328l.087.001.042.075.879 1.536.034.061-.024.065c-.698 1.875-1.48 3.021-2.087 4.052-.597 1.015-1.027 1.924-1.077 3.345l1.066 1.42 1.026-.119a97.553 97.553 0 0 0 2.423-3.994l.103-.18.138.155c.552.614.93 1.07 1.377 1.439.432.357.93.631 1.71.87 4.439-1.576 7.135-4.381 9.765-7.159 2.637-2.786 5.214-5.551 9.41-6.942l.018-.006.02-.001c4.074-.263 12.048-1.013 19.951-1.967 7.875-.95 15.664-2.103 19.452-3.173.505-.646.722-.943.86-1.276.143-.345.203-.729.378-1.585l.013-.067.06-.033.369-.193c1.882-.903 4.235-.894 6.582-.657 1.254.126 2.519.319 3.716.477 1.2.159 2.333.284 3.336.277.618-.004 1.262-.364 1.948-.937.685-.571 1.382-1.326 2.113-2.08.726-.75 1.484-1.496 2.274-2.027.791-.531 1.632-.857 2.522-.743 2.157.28 3.673.729 4.868 1.168.596.219 1.114.435 1.585.624.474.19.902.352 1.328.467 1.682.453 3.393.188 7.735-2.3l.068-.039.07.033c.553.255.952.414 1.255.535.299.119.519.208.696.322.365.238.533.583.945 1.434l.032.065-.032.065c-.484 1.01-.951 1.619-1.533 2.15-.455.415-.984.786-1.636 1.26 1.535-.307 2.986-.779 3.812-2.189l.099-.18.016-.016 2.425-2.39.029-.029.037-.009c2.009-.537 2.984-.858 4.887-1.617l.287-1.188v-.001l.002-.005.849-2.985.011-.043.033-.029c1.916-1.711 5.605-3.747 10.227-5.908 4.629-2.164 10.21-4.46 15.924-6.686 11.417-4.447 23.405-8.628 29.342-10.902v-.001l.01-.003c6.635-2.008 13.724-3.551 20.734-5.296 7.013-1.747 13.952-3.698 20.308-6.525 5.124-2.279 11.766-6.188 18.494-9.841 6.716-3.648 13.519-7.04 18.938-8.262 2.975-.67 9.806-2.373 18.504-4.484 8.696-2.11 19.255-4.627 29.686-6.924 10.43-2.298 20.733-4.377 28.916-5.61 4.091-.617 7.655-1.022 10.442-1.138 1.393-.058 2.595-.043 3.573.055.974.098 1.742.28 2.254.566l.103.058-.032.113c-.628 2.273-1.625 5.61-1.867 8.724-.239 3.081.268 5.867 2.515 7.221l.594-.565c-.457-5.03 1.39-9.734 2.858-14.54l.02-.064.059-.028.561-.259c5.666-2.569 9.62-2.889 15.821-4.339l-.006-.085c1.085-.345 3.253-.876 5.381-1.207 1.064-.165 2.122-.28 3.031-.297.901-.017 1.683.063 2.175.309l.11.054-.031.118c-.313 1.172-.548 1.911-.683 2.657-.131.721-.167 1.446-.08 2.561l1.303.712c.638-.077 1.061-.129 1.375-.198.316-.069.513-.152.7-.289.194-.142.383-.345.681-.669.296-.322.688-.753 1.281-1.335l.051-.051.072.009c1.167.14 2.335.266 3.505.379l1.171.11c1.517.126 2.469.181 3.298-.007.804-.183 1.505-.599 2.497-1.439-.215-1.279-.392-2.176-.353-3.042.041-.89.307-1.741.962-2.952l.246-1.274.019-.097.096-.021c3.046-.687 5.331-1.09 8.188-2.313-.252-2.586.086-4.452.469-5.913.097-.37.196-.713.289-1.034.093-.322.18-.621.252-.904.127-.503.204-.947.19-1.366-1.285.191-2.162.334-3.513.345h-.001l-.91.001c-11.54 1.339-13.958 2.34-24.788 5.484l-.024.007-.026-.001c-2.466-.135-5.118.296-7.911.953-2.799.66-5.707 1.538-8.718 2.301-6.002 1.523-12.332 2.567-18.527.325-1.189-.43-1.907-.79-2.363-1.109-.462-.324-.654-.605-.795-.869-.138-.261-.209-.458-.441-.678-.225-.212-.609-.447-1.359-.725Zm-68.201 23.567c1.58-.599 3.621-1.111 5.732-1.543 4.215-.864 8.754-1.42 10.476-1.719l.1.279c-1.753.996-5.58 2.253-9.439 3.296-3.861 1.043-7.785 1.88-9.74 2.027l-.225.016.072-.214c.145-.433.519-.82 1.034-1.168.519-.351 1.2-.674 1.99-.974Z"/><path fill="#8E6487" stroke="#000" stroke-width=".3" d="M353.441 175.054c-2.105.432-4.128.939-5.686 1.53-.779.296-1.436.611-1.928.943-.388.262-.661.527-.816.794 2-.193 5.734-.996 9.43-1.994 3.313-.896 6.573-1.944 8.516-2.838-2.129.322-5.926.83-9.516 1.565Z"/><path fill="#A26C9A" stroke="#000" stroke-width=".3" d="M347.297 170.341c-4.605 2.219-9.281 5.086-13.972 7.901-4.689 2.813-9.393 5.573-14.043 7.57l-.053.023-.055-.019c-.709-.242-1.307-.481-1.842-.693a17.58 17.58 0 0 0-1.463-.53c-.897-.264-1.754-.343-2.96-.062-.507.556-1.904 2.1-3.281 3.552a65.475 65.475 0 0 1-1.975 2.012c-.286.276-.542.513-.752.689a4.105 4.105 0 0 1-.284.22 1.55 1.55 0 0 1-.119.076l-.108.052c-13.724 4.985-34.619 13.483-48.111 17.278l-.08.023-.062-.056c-.993-.903-1.507-1.386-2.074-1.775-.561-.385-1.176-.68-2.366-1.191-3.117-.191-4.997 1.323-7.883 2.961-.467.59-1.358 1.246-2.554 1.942-1.22.71-2.774 1.473-4.556 2.263-3.565 1.579-8.056 3.273-12.645 4.873-9.147 3.191-18.7 6.018-22.128 6.857-.5.435-.953.69-1.352.876-.201.094-.39.17-.559.242a4.346 4.346 0 0 0-.456.218 1.386 1.386 0 0 0-.622.688c-.153.343-.255.846-.299 1.624 1.154.989 2.368 1.667 3.532 2.319 1.179.66 2.311 1.298 3.242 2.209l.179.175-.239.075c-.823.259-1.463.481-2.242.781l.789 1.109.675.04c15.44-11.542 35.431-17.411 55.729-23.066 20.328-5.665 40.965-11.117 57.718-21.827 1.621-1.036 3.547-1.773 5.622-2.417a106.91 106.91 0 0 1 3.214-.927c1.098-.303 2.217-.61 3.339-.947 4.484-1.345 9.003-3.158 12.437-7.068.153-.419.519-.794 1.021-1.133.519-.35 1.2-.675 1.99-.974 1.58-.6 3.621-1.111 5.732-1.544 4.215-.863 8.755-1.419 10.476-1.718l.015-.003.017.001c3.635.15 5.55.338 7.512.224 1.907-.112 3.855-.512 7.463-1.52l-.131-.109-.047-.039-.006-.061c-.04-.404-.011-.73.083-.996.094-.269.253-.468.457-.622.201-.152.443-.258.705-.344.262-.086.554-.157.854-.236.607-.158 1.267-.352 1.901-.77.576-.38 1.135-.95 1.606-1.86-4.424.915-8.691 1.591-12.988 2.305-4.395.73-8.825 1.502-13.495 2.621l-.021.005-.021-.001-.858-.041c-1.125-.059-3.321-.487-5.333-.839-1.011-.177-1.978-.335-2.751-.42a9.543 9.543 0 0 0-.987-.065c-.273.001-.449.027-.535.069Z"/><path fill="#AF7292" stroke="#000" stroke-width=".3" d="M347.297 170.341c-4.605 2.219-9.28 5.086-13.972 7.901-4.51 2.706-9.036 5.361-13.513 7.337.71.045 1.092-.033 1.566-.064.592-.039 1.282.003 2.802.448 2.566-.925 5.062-2.402 7.559-3.936 2.507-1.539 5.02-3.134 7.592-4.261 2.525-1.106 6.05-2.009 9.465-2.983 3.218-.917 6.337-1.897 8.484-3.169l-.377-.018c-1.125-.059-3.321-.487-5.333-.839-1.011-.176-1.978-.335-2.751-.42a9.526 9.526 0 0 0-.987-.065c-.273.001-.449.027-.535.069Z"/><path fill="#8E6487" stroke="#000" stroke-width=".3" d="M253.698 205.412c-3.055-.188-4.924 1.26-7.715 2.86 1.071.857 2.006 1.359 2.886 1.611.924.266 1.794.262 2.703.104.913-.159 1.859-.472 2.94-.825 1.004-.328 2.119-.688 3.411-.98-.856-.779-1.336-1.221-1.86-1.581-.561-.384-1.176-.679-2.365-1.189Z"/><path fill="#AF7292" stroke="#000" stroke-width=".3" d="M95.532 247.539c-.846.17-1.355.593-1.842 1.148-.482.55-.964 1.262-1.714 1.928-.76.674-1.802 1.312-3.443 1.765l-.014.005-.014.001c-4.395.337-8.398 1.288-12.325 2.247-3.92.957-7.769 1.923-11.838 2.285-8.62 1.793-17.735 3.523-26.143 5.952.828 4.137 1.181 5.673 2.691 9.527.436-.478.959-1.052 1.572-1.727l.026-.03.038-.012 2.06-.67c4.852-1.551 10.021-3.028 15.172-4.495 5.887-1.676 11.75-3.34 17.1-5.086l.086-.028.065.064c1.47 1.439 2.344 2.116 3.363 2.447 1.027.333 2.212.32 4.33.329h.001c1.464.032 2.27.435 2.961.621.344.093.665.135 1.044.068.37-.067.804-.241 1.376-.593l.321-2.569.006-.041.026-.033c.776-.988 2.578-2.721 3.52-3.676l.049-.049.067.004c3.88.224 6.638.004 10.081-2.08l.039-.024.045.002 1.112.049v-.002l.014.002c1.62.218 4.41.075 7.225-.205 2.733-.273 5.472-.674 7.149-.99-.151-1.109-.209-1.78-.409-2.4-.205-.634-.563-1.216-1.357-2.144l-.057-.067.031-.082c.313-.848.514-1.402.638-1.976.117-.538.164-1.099.168-1.94-.753.031-1.155.035-1.534-.079a3.098 3.098 0 0 1-.625-.285c-.218-.122-.482-.284-.828-.488-.922.249-1.515.677-2.075 1.17-.57.501-1.124 1.087-1.946 1.582l-.038.023-.044-.002c-3.291-.113-4.636-.271-6.004-.201-1.359.069-2.733.366-6.062 1.176l-.037.009-.037-.01c-1.912-.508-3.132-.592-3.99-.42Z"/><path fill="#8E6487" stroke="#000" stroke-width=".3" d="M99.962 247.872c1.371.798 2.372 1.348 3.243 2.042.92.733 1.691 1.626 2.618 3.137.545-.312.832-.529 1.081-.791.276-.29.502-.626.972-1.218l.055-.068.084.013.369.054.153.023-.028.153c-.2 1.098-.412 1.841-.866 2.431-.383.497-.929.873-1.748 1.275 1.658.131 4.166-.008 6.694-.26 2.733-.272 5.472-.674 7.149-.989-.151-1.11-.209-1.781-.409-2.4-.205-.635-.563-1.218-1.357-2.145l-.057-.067.03-.082c.314-.848.515-1.402.639-1.976.116-.538.164-1.099.168-1.939-.753.031-1.155.034-1.534-.08a3.09 3.09 0 0 1-.625-.284c-.219-.123-.483-.285-.829-.49-.922.25-1.514.679-2.074 1.172-.57.501-1.124 1.086-1.946 1.58l-.038.024-.044-.002c-3.291-.113-4.636-.272-6.004-.202-1.308.067-2.63.346-5.697 1.089Z"/><path fill="#53644E" stroke="#000" stroke-width=".3" d="M85.192 257.781c-2.35.409-4.602 1.189-8.024 2.782 1.376 1.335 2.222 1.978 3.204 2.297 1.027.333 2.212.32 4.33.329l.002-.001c1.464.032 2.27.436 2.96.622.344.093.665.136 1.044.068.37-.067.804-.241 1.377-.594l.321-2.568.005-.041.025-.033.336-.403c.79-.907 2.072-2.158 2.921-3.008-3.754.102-6.177.146-8.5.55Z"/><path fill="#A26C9A" stroke="#000" stroke-width=".3" d="M119.054 244.977c-.001.9-.05 1.504-.176 2.09-.126.578-.325 1.135-.62 1.934.765.902 1.139 1.507 1.356 2.18.211.653.273 1.368.422 2.46.788-.018 2.129-.205 3.904-.531 1.872-.345 4.215-.84 6.876-1.442 5.322-1.205 11.911-2.837 18.535-4.542 13.154-3.387 26.442-7.065 30.232-8.266.508-2.183.92-4.349 1.975-6.371l-1.582.17-.066.007-.05-.045-1.166-1.05-1.68-.046c-14.183 4.805-27.228 9.8-42.255 11.358-.899.093-2.125.308-3.504.56-1.377.252-2.903.54-4.398.779-1.495.24-2.963.431-4.222.487-1.199.053-2.233-.017-2.923-.3l-.658.568Z"/><path fill="#242426" stroke="#000" stroke-width=".3" d="m90.372 263.395-.009.071-.06.037c-.62.389-1.11.592-1.543.669-.436.079-.803.028-1.174-.072-.692-.187-1.378-.532-2.621-.602l.743 1.302.036.061-.024.066c-.699 1.875-1.482 3.02-2.088 4.051-.597 1.015-1.027 1.924-1.077 3.343l1.067 1.423 1.026-.12a98.209 98.209 0 0 0 2.422-3.994l.103-.18.139.154c.552.615.93 1.071 1.377 1.44.431.357.93.63 1.71.87 4.438-1.577 7.134-4.381 9.765-7.16 2.481-2.621 4.909-5.224 8.684-6.681-.891-.009-1.847.064-2.726.105-2.199 1.687-4.078 2.99-6.104 3.885-2.04.902-4.224 1.389-7.027 1.449l-.043.001-.037-.022c-.525-.311-.868-.492-1.11-.625-.238-.13-.394-.223-.516-.355-.122-.132-.202-.297-.316-.546-.08-.176-.182-.402-.328-.709l-.269 2.139Z"/><path fill="#A45558" stroke="#000" stroke-width=".3" d="M173.832 217.033c-1.871.126-4.009.676-5.76 1.707-1.751 1.031-3.101 2.535-3.435 4.565l.555.878c1.272.266 2.072.557 3.254.204 2.653-1.562 5.572-2.071 8.339-2.701 2.61-.594 5.091-1.295 7.165-3.062l.409-.368c.759-.719 1.257-1.138 1.821-1.441.522-.281 1.096-.457 1.973-.69l-.297-.409c-2.634-.249-5.125.798-7.484 1.567-2.339.763-4.56 1.253-6.54-.25Z"/><path fill="#BF856D" stroke="#000" stroke-width=".3" d="M186.852 223.891c-3.233-.843-6.753-.11-10.073 1.36-3.189 1.412-6.178 3.498-8.522 5.49 3.058-.076 5.695-.263 8.771-.515l.07-.005.049.05.526.543-.089.104-.272.315 1.408.039a48.74 48.74 0 0 0 1.097-.548c1.332-.684 3.068-1.466 4.59-2.422 1.5-.943 2.748-2.033 3.191-3.321l-.746-1.09Z"/><path fill="#242426" stroke="#000" stroke-width=".3" d="M189.829 231.529c.864 1.898 1.861 4.336 2.773 6.282l.388.808c1.172 2.376 1.356 3.49 1.102 4.567-.124.526-.353 1.043-.599 1.676a15.382 15.382 0 0 0-.633 1.997l2.043-2.013c1.278-2.378 1.748-4.039 2.591-6.575-2.86-2.974-4.462-5.347-7.5-7.715l-.165.973Z"/><path fill="#89706A" stroke="#000" stroke-width=".3" d="M198.141 231.804c-.381.99-.472 1.955-.461 2.963.006.542.04 1.094.072 1.67.033.574.064 1.172.061 1.798v.023l-.007.023c-.824 2.473-1.295 4.138-2.489 6.42 1.79-.484 2.76-.809 4.555-1.524l.279-1.154c-.272-1.095-.361-1.394-.38-2.575l-.013-.835a22.463 22.463 0 0 0-.436-3.719c-.144-.693-.324-1.366-.548-1.938-.186-.473-.397-.868-.633-1.152Z"/><path fill="#91515D" stroke="#000" stroke-width=".3" d="M195.821 218.7c-.278 1.151-.134 2.435.199 3.724.319 1.236.807 2.461 1.241 3.561.767-.736 1.182-1.14 1.525-1.591.361-.476.644-1.009 1.168-2.052-.044-1.145-.196-1.769-.521-2.341-.327-.575-.827-1.099-1.611-2.031l-2.001.73Z"/><path fill="#E1E5EE" stroke="#000" stroke-width=".3" d="M212.267 60.982c-9.443.371-19.223 4.969-27.718 11.566-8.227 6.389-15.236 14.643-19.553 22.716l3.496-3.272c3.531-3.316 6.498-4.613 9.172-4.702 2.671-.09 5.02 1.029 7.305 2.47 1.141.721 2.276 1.529 3.427 2.31 1.153.782 2.327 1.542 3.557 2.175 2.457 1.265 5.135 2.025 8.312 1.457l.04-.007.039.014c2.667.997 6.194 2.72 9.608 4.192 1.711.737 3.397 1.413 4.942 1.909 1.546.496 2.942.809 4.076.827l.411.007-.319.259-2.358 1.925c2.421.405 6.142 1.207 9.754 1.696 1.885.255 3.728.422 5.321.4 1.532-.021 2.81-.219 3.673-.664l-.508-1.462-.023-.065.034-.06c.539-.923.947-1.311 1.568-1.578.301-.129.651-.229 1.078-.353.429-.125.947-.276 1.597-.509l.474-.17-.104.137c.246-.119.596-.306 1.022-.551 1.02-.586 2.459-1.471 3.921-2.39a414.662 414.662 0 0 0 5.742-3.674l.088-.057.001-.001 1.612-1.965c-.414-1.3-.835-2.268-1.248-3.268-.421-1.02-.834-2.067-1.214-3.518l-.019-.074.047-.059 1.418-1.737c.288-.374.502-.625.621-.778.129-.164.168-.24.18-.323.014-.097-.004-.217-.047-.485-.042-.26-.101-.631-.152-1.201l-.003-.045.02-.04c.586-1.11.858-1.548 1.383-1.849.254-.145.564-.259.984-.41.424-.154.972-.352 1.716-.67l.033-.013.035.001c2.135.117 4.253.54 6.381 1.037 1.82.424 3.643.9 5.501 1.29-1.338-.73-2.761-1.478-4.085-2.311-1.611-1.013-3.097-2.164-4.14-3.594-.927-.993-2.626-2.323-4.753-3.777-2.127-1.455-4.673-3.029-7.281-4.505-2.608-1.476-5.277-2.854-7.65-3.918-2.375-1.065-4.442-1.81-5.85-2.029l-.014-.001-.012-.005c-2.931-1.034-6.746-1.174-10.622-1.02-1.935.076-3.882.226-5.736.372-1.853.146-3.616.288-5.18.35Zm38.083 34.59a.243.243 0 0 0 .031.109l.042-.028-.073-.081Z"/><path fill="#070B12" stroke="#000" stroke-width=".3" d="M212.267 60.982c-9.443.371-19.223 4.969-27.718 11.566-8.227 6.389-15.236 14.643-19.553 22.716l3.496-3.272c3.531-3.316 6.498-4.613 9.172-4.702 2.671-.09 5.02 1.029 7.305 2.47 1.141.721 2.276 1.529 3.427 2.31 1.153.782 2.327 1.542 3.557 2.175 2.32 1.195 4.836 1.938 7.784 1.539-2.567-1.11-5.229-3.09-7.232-5.522-2.132-2.59-3.53-5.712-3.243-8.862.157-1.744.728-2.828 1.572-3.715.419-.44.903-.83 1.429-1.226.529-.398 1.095-.8 1.697-1.276l.035-.027.042-.005c4.936-.536 11.513.272 17.558.82 3.028.276 5.925.487 8.429.436 2.508-.05 4.599-.364 6.03-1.122l.078-.04.074.047c2.441 1.573 4.136 2.853 5.941 3.617 1.79.758 3.686 1.005 6.512.477l.02-.004.02.002c2.601.214 4.86.817 6.962 1.384 2.073.56 3.987 1.082 5.943 1.181.555-1.047.825-1.47 1.336-1.764.254-.145.564-.259.984-.41.424-.154.972-.352 1.716-.67l.033-.013.035.001c2.135.117 4.253.54 6.381 1.037 1.82.424 3.643.9 5.501 1.29-1.338-.73-2.761-1.478-4.085-2.311-1.611-1.013-3.097-2.164-4.14-3.594-.927-.993-2.626-2.323-4.753-3.777-2.127-1.455-4.673-3.029-7.281-4.505-2.608-1.476-5.277-2.854-7.65-3.918-2.375-1.065-4.442-1.81-5.85-2.029l-.014-.001-.012-.005c-2.931-1.034-6.746-1.174-10.622-1.02-1.935.076-3.882.226-5.736.372-1.853.146-3.616.288-5.18.35Z"/><path fill="#081B2E" stroke="#000" stroke-width=".3" d="M232.043 69.413c-1.075.392-2.184 1.39-3.199 2.563-.979 1.13-1.854 2.404-2.51 3.399 2.373 1.535 4.041 2.784 5.814 3.535 1.711.724 3.518.98 6.142.54l-.637-.424-.032-.02-.018-.034c-.31-.585-.423-1.442-.523-2.374-.102-.945-.191-1.987-.437-2.987-.245-.998-.643-1.94-1.356-2.686-.704-.737-1.727-1.294-3.244-1.512Z"/><path fill="#000" stroke="#E1E5EE" stroke-width=".3" d="M234.295 72.9c2.222 1.32 2.853 5.034 2.892 6.727-9.681 3.643-9.735-1.71-10.084-4.11-.188-.737 4.414-4.266 7.192-2.617Z"/><path fill="#243B49" stroke="#000" stroke-width=".3" d="M234.129 61.339c.677 1.206 2.118 2.554 4.029 3.93 2.047 1.475 4.608 2.968 7.281 4.34 5.055 2.596 10.489 4.75 13.562 5.538-.973-.943-2.514-2.128-4.388-3.41-2.127-1.454-4.674-3.027-7.282-4.503-2.608-1.477-5.277-2.855-7.649-3.918-2.214-.993-4.159-1.707-5.553-1.977Z"/><path fill="#102F56" stroke="#000" stroke-width=".3" d="M216.703 104.828c2.42.405 6.143 1.207 9.755 1.696 1.885.255 3.728.422 5.32.4 1.532-.021 2.811-.218 3.675-.663l-.509-1.462-.023-.066.035-.059c.538-.923.946-1.311 1.567-1.578.301-.13.651-.23 1.078-.354l.329-.099c-2.589.26-4.328.624-5.608.985-.744.209-1.335.418-1.849.608-.513.188-.958.359-1.401.488-1.789.521-3.547.347-10.073-1.769l-2.296 1.873Z"/><path fill="#D06D62" stroke="#000" stroke-width=".3" d="M121.422 198.808c-1.571.945-3.151 1.88-4.735 2.801l-.138.08-.072-.142-.212-.428a242.278 242.278 0 0 0-6.155 5.456c-1.063 3.896-2.999 9.891-3.804 13.538l-.013.058-.05.033-2.842 1.938c-4.129 14.199-7.026 17.769-14.57 29.836 1.382-.431 2.282-.999 2.947-1.588.732-.651 1.172-1.315 1.686-1.901.51-.582 1.074-1.056 2.01-1.243.918-.185 2.18-.09 4.085.413 3.298-.802 4.696-1.104 6.084-1.175 1.378-.071 2.755.087 5.982.199.771-.471 1.283-1.013 1.866-1.526.581-.511 1.216-.972 2.204-1.238 2.408-3.094 4.637-5.868 7.12-8.785l1.086-1.266c2.34-3.407 3.411-4.885 6.274-7.944l.103-.682.009-.057.044-.036 1.022-.839c.282-.237.516-.447.726-.677.404-.443.72-.961 1.109-1.895-.847-1.85-2.421-3.514-4.228-4.995-1.826-1.496-3.877-2.795-5.633-3.903l-.066-.041-.004-.077c-.291-5.278-.924-8.783-1.835-13.914Z"/><path fill="#0C437E" stroke="#000" stroke-width=".3" d="M116.264 201.12a243.97 243.97 0 0 0-6.154 5.456c-1.063 3.895-2.999 9.89-3.804 13.537l-.013.059-.049.032-2.842 1.938c-4.13 14.199-7.027 17.769-14.57 29.837 1.382-.432 2.28-.999 2.945-1.589.733-.65 1.173-1.314 1.688-1.901.51-.582 1.073-1.055 2.009-1.243.919-.185 2.18-.089 4.086.413 3.297-.802 4.695-1.104 6.083-1.175 1.292-.066 2.583.067 5.4.177-1.356-.702-2.566-.963-3.852-1.252-1.46-.329-3.011-.693-4.943-1.78l-.062-.035-.012-.07-.191-1.126-.013-.079.057-.055 1.79-1.697.007-.007.008-.006c2.89-2.104 3.651-3.52 5.622-6.425.02-1.504.364-3.798.893-6.507.535-2.741 1.26-5.919 2.034-9.15 1.541-6.44 3.271-13.091 4.074-16.973l-.191-.379Z"/><path fill="#102F56" stroke="#000" stroke-width=".3" d="M103.403 222.141c-4.129 14.2-7.027 17.769-14.57 29.837 1.381-.431 2.28-.999 2.945-1.588.733-.651 1.173-1.315 1.688-1.901.51-.582 1.073-1.056 2.008-1.244.919-.184 2.181-.089 4.087.414 3.297-.802 4.695-1.104 6.083-1.176 1.291-.066 2.582.067 5.398.177-1.356-.701-2.565-.962-3.851-1.252-1.46-.328-3.011-.692-4.943-1.779l-.062-.035-.012-.07-.191-1.127-.013-.078.058-.055 1.457-1.383c-.869.112-1.571.219-2.483.433l.001-.001-.856.204-.113.027-.054-.102c-.07-.13-.095-.315-.097-.526a5.52 5.52 0 0 1 .064-.784c.085-.609.252-1.393.477-2.296.452-1.806 1.141-4.103 1.886-6.455 1.388-4.381 2.965-8.945 3.581-10.937l-2.488 1.697Z"/><path fill="#3E4D64" stroke="#000" stroke-width=".3" d="M255.724 79.396c-.735.313-1.279.51-1.698.66-.428.156-.711.26-.938.39-.431.247-.665.596-1.243 1.689.048.535.103.887.143 1.136.04.247.071.423.048.577-.024.167-.108.296-.24.465-.141.18-.324.39-.622.78l-.003.003-1.368 1.676c.37 1.394.768 2.41 1.181 3.408.419 1.016.854 2.016 1.281 3.37l.024.077-.051.062-1.442 1.757c1.966-.238 3.613-.16 5.237-.01 1.681.157 3.325.382 5.286.413l-.019-.25-.014-.18.18.02 1.853.205.077.008.037.067c.317.561.488.848.559 1.16.065.281.047.582.015 1.116 1.979-.129 5.027-.732 7.992-1.622 3.039-.912 5.963-2.115 7.557-3.391.635-1.321.544-2.506-.013-3.588-.566-1.1-1.617-2.1-2.902-3.014-1.283-.913-2.788-1.731-4.245-2.474-1.442-.735-2.846-1.4-3.926-2.001-2.192-.42-4.337-.991-6.449-1.484-2.113-.492-4.199-.907-6.297-1.025Z"/><path fill="#C6ADB6" stroke="#000" stroke-width=".3" d="M249.803 86.773c.37 1.394.768 2.41 1.18 3.407.408.986.829 1.958 1.244 3.254 3.849-.318 8.042-.943 12.396-1.582 4.056-.596 8.25-1.199 12.425-1.576-3.951-.787-7.461-1.742-11.052-2.67-3.821-.988-7.739-1.94-12.395-2.62l.08.145.05.092-.067.08-.489.573-.069.081-.099-.038-1.905-.74-1.299 1.594Z"/><path fill="#A45558" stroke="#000" stroke-width=".3" d="M123.9 234.33c-2.806 3.255-5.242 6.273-7.892 9.677.306.181.535.322.732.432.224.126.393.206.565.258.339.102.705.099 1.541.063l.726-.624c1.161-1.741 2.346-3.274 3.192-4.886.794-1.515 1.278-3.083 1.136-4.92Z"/></svg>